<?xml version="1.0" encoding="UTF-8" standalone="no"?>
<!-- Created with Inkscape (http://www.inkscape.org/) -->

<svg
   width="7034.0498"
   height="978.00977"
   viewBox="0 0 1861.0923 258.76508"
   version="1.1"
   id="svg5"
   inkscape:version="1.2.2 (732a01da63, 2022-12-09)"
   sodipodi:docname="SoundHub logo.svg"
   xmlns:inkscape="http://www.inkscape.org/namespaces/inkscape"
   xmlns:sodipodi="http://sodipodi.sourceforge.net/DTD/sodipodi-0.dtd"
   xmlns="http://www.w3.org/2000/svg"
   xmlns:svg="http://www.w3.org/2000/svg">
  <sodipodi:namedview
     id="namedview7"
     pagecolor="#ffffff"
     bordercolor="#cccccc"
     borderopacity="1"
     inkscape:showpageshadow="0"
     inkscape:pageopacity="1"
     inkscape:pagecheckerboard="0"
     inkscape:deskcolor="#ffffff"
     inkscape:document-units="px"
     showgrid="false"
     showborder="false"
     showguides="true"
     inkscape:zoom="0.0625"
     inkscape:cx="3088"
     inkscape:cy="2224"
     inkscape:window-width="1920"
     inkscape:window-height="1009"
     inkscape:window-x="-8"
     inkscape:window-y="-8"
     inkscape:window-maximized="1"
     inkscape:current-layer="layer1" />
  <defs
     id="defs2" />
  <g
     inkscape:label="Capa 1"
     inkscape:groupmode="layer"
     id="layer1"
     transform="translate(2309.6765,104.775)">
    <path
       id="path3136"
       style="color:#000000;opacity:1;fill:#ffffff;fill-opacity:1;stroke-width:1;stroke-linecap:round;stroke-linejoin:round;-inkscape-stroke:none"
       d="M -1077.2386,-104.775 V -2.9796676 c -13.9841,-9.7830174 -30.962,-15.5416874 -49.2141,-15.5416874 -47.4176,0 -86.2538,38.836248 -86.2538,86.253649 0,47.417406 38.8362,86.256236 86.2538,86.256236 18.2521,0 35.23,-5.75935 49.2141,-15.54273 v 15.54273 h 37.0418 V 67.732294 -104.775 Z m -49.2141,123.296345 c 27.3986,0 49.2131,21.812329 49.2131,49.210949 0,27.39862 -21.8145,49.213016 -49.2131,49.213016 -27.3988,0 -49.211,-21.814396 -49.211,-49.213016 0,-27.39862 21.8122,-49.210949 49.211,-49.210949 z" />
    <path
       id="path4732"
       style="color:#000000;opacity:1;fill:#ffffff;fill-opacity:1;stroke-width:0.999992;stroke-linecap:round;stroke-linejoin:round;-inkscape-stroke:none"
       d="m -1578.8917,-18.519963 v 86.253742 h -5e-4 v 0.001 c 0,47.416551 38.8386,86.252201 86.2564,86.252201 18.2513,0 35.2278,-5.7585 49.2113,-15.5404 v 15.54195 h 37.042 V 67.855738 c 0,-0.0404 0,-0.0805 0,-0.120918 v -0.001 0 -86.252723 h -37.042 v 86.252722 0.001 c 0,27.398128 -21.8125,49.210111 -49.2113,49.210111 -27.3988,0 -49.2134,-21.811983 -49.2134,-49.210111 v -0.001 h -6e-4 v -86.253752 z" />
    <path
       id="path8386"
       style="color:#000000;opacity:1;fill:#ffffff;fill-opacity:1;stroke-width:0.999989;stroke-linecap:round;stroke-linejoin:round;-inkscape-stroke:none"
       d="M -1223.2899,153.98853 V 67.735265 h 5e-4 v -0.001 c 0,-47.416238 -38.8387,-86.251668 -86.2564,-86.251668 -18.2514,0 -35.2278,5.758472 -49.2113,15.5403525 V -18.518903 h -37.042 v 86.13227 c 0,0.04 0,0.081 0,0.120898 v 0.001 0 86.252265 h 37.042 v -86.252265 -0.001 c 0,-27.397987 21.8125,-49.209798 49.2113,-49.209798 27.3988,0 49.2134,21.811811 49.2134,49.209798 v 0.001 h 6e-4 v 86.253265 z" />
    <path
       style="color:#000000;opacity:1;fill:#ffffff;fill-opacity:1;stroke-width:0.999993;stroke-linecap:round;stroke-linejoin:round;-inkscape-stroke:none"
       d="m -1675.7309,-18.518903 c -47.4175,0 -86.2539,38.835933 -86.2539,86.252739 0,47.416804 38.8364,86.254694 86.2539,86.254694 47.4174,0 86.2558,-38.83789 86.2558,-86.254694 0,-47.416806 -38.8384,-86.252739 -86.2558,-86.252739 z m 0,37.042467 c 27.3986,0 49.2129,21.811994 49.2129,49.210272 0,27.398276 -21.8143,49.212224 -49.2129,49.212224 -27.3987,0 -49.211,-21.813948 -49.211,-49.212224 0,-27.398278 21.8123,-49.210272 49.211,-49.210272 z"
       id="path8388" />
    <path
       id="path299"
       style="color:#000000;opacity:1;fill:#ffffff;fill-opacity:1;stroke-linecap:round;stroke-linejoin:round;-inkscape-stroke:none"
       d="m -987.27978,-104.775 v 172.509366 0.001 86.253134 h 37.04173 V 67.735399 h 0.001 v -0.001 c 0,-27.398592 21.8119,-49.210949 49.21052,-49.210949 27.39872,0 49.21361,21.812357 49.21361,49.210949 v 0.001 h 5.2e-4 v 86.253131 h 37.04172 V 67.735399 h 5.2e-4 v -0.001 c 0,-47.417352 -38.83884,-86.253649 -86.25637,-86.253649 -18.25143,0 -35.22815,5.758364 -49.21155,15.5406535 V -104.775 Z" />
    <path
       id="path1760"
       style="color:#000000;opacity:1;fill:#ffffff;fill-opacity:1;stroke-width:0.999996;stroke-linecap:round;stroke-linejoin:round;-inkscape-stroke:none"
       d="m -804.18632,-18.519791 v 86.254433 h -5e-4 v 0.001 c 0,47.416938 38.8386,86.252888 86.2564,86.252888 18.2513,0 35.2278,-5.75853 49.2113,-15.54052 v 15.54207 h 37.042 V 67.856602 c 0,-0.0404 0,-0.0805 0,-0.120919 v -10e-4 0 -86.253414 h -37.042 v 86.253413 10e-4 c 0,27.398348 -21.8125,49.210508 -49.2113,49.210508 -27.3988,0 -49.2134,-21.81216 -49.2134,-49.210508 v -10e-4 h -6e-4 v -86.254443 z" />
    <path
       id="path1762"
       style="color:#000000;opacity:1;fill:#ffffff;fill-opacity:1;stroke-width:1;stroke-linecap:round;stroke-linejoin:round;-inkscape-stroke:none"
       d="M -584.05198,-104.775 V -2.9796716 c 13.9841,-9.7830174 30.962,-15.5416874 49.2141,-15.5416874 47.4176,0 86.2538,38.836248 86.2538,86.253649 0,47.41741 -38.8362,86.25624 -86.2538,86.25624 -18.2521,0 -35.23,-5.75935 -49.2141,-15.54272 v 15.54272 h -37.0418 V 67.73229 -104.775 Z m 49.2141,123.296341 c -27.3986,0 -49.2131,21.812328 -49.2131,49.210949 0,27.398621 21.8145,49.21302 49.2131,49.21302 27.3988,0 49.211,-21.814399 49.211,-49.21302 0,-27.398621 -21.8122,-49.210949 -49.211,-49.210949 z" />
    <path
       id="path8615"
       style="color:#000000;opacity:1;fill:#ffffff;fill-opacity:1;stroke-width:0.903394;stroke-linecap:round;stroke-linejoin:round;-inkscape-stroke:none"
       d="m -1858.8241,-104.775 c -22.1426,7e-5 -44.2856,6.831927 -61.0725,20.495272 -33.5743,27.32714 -33.5757,76.0645278 0,103.391518 16.7868,13.663442 38.9306,20.495609 61.0737,20.495684 12.5735,-4.05e-4 25.1473,3.94724 34.8478,11.842693 19.3996,15.790016 19.3982,44.904902 0,60.695003 -19.3998,15.79008 -50.2886,15.79008 -69.6884,0 -4.7047,-3.82922 -8.258,-8.21104 -10.6809,-12.873455 l -27.3347,22.248445 c 3.3145,4.25238 7.2389,8.27341 11.7843,11.97304 16.7868,13.66344 38.9302,20.49524 61.0729,20.49533 22.1425,-9e-5 44.2855,-6.83189 61.0724,-20.49533 33.5744,-27.32707 33.5757,-76.06447 0,-103.391451 -16.7869,-13.663472 -38.9301,-20.4952576 -61.0734,-20.4953327 -12.5735,4.505e-4 -25.1476,-3.9472466 -34.8481,-11.8427162 -19.3997,-15.7899641 -19.3983,-44.9053021 0,-60.6953391 19.3998,-15.790113 50.2887,-15.790113 69.6884,0 4.7046,3.829235 8.2579,8.211444 10.6808,12.87382 l 27.3352,-22.248418 c -3.3144,-4.252412 -7.2394,-8.273754 -11.7847,-11.973491 -16.7869,-13.663345 -38.9298,-20.495202 -61.0724,-20.495272 z" />
    <ellipse
       style="opacity:1;fill:#ffffff;fill-opacity:1;stroke:none;stroke-width:35.8693;stroke-linecap:round;stroke-linejoin:round;stroke-opacity:1"
       id="path12363"
       cx="-2180.2947"
       cy="24.606764"
       rx="129.38177"
       ry="129.38176" />
    <path
       id="path31701"
       style="opacity:1;fill:#000000;fill-opacity:1;stroke:none;stroke-width:16.1933;stroke-linecap:round;stroke-linejoin:round;stroke-dasharray:none;stroke-opacity:1"
       d="m -2247.764,-54.768234 c -5.863,0 -10.5833,4.720179 -10.5833,10.583333 V 93.39843 c 0,5.863153 4.7203,10.58333 10.5833,10.58333 5.8632,0 10.5834,-4.720177 10.5834,-10.58333 V -44.184901 c 0,-5.863154 -4.7202,-10.583333 -10.5834,-10.583333 z m 134.9386,0 c -5.8632,0 -10.5834,4.720179 -10.5834,10.583333 V 93.39843 c 0,5.863153 4.7202,10.58333 10.5834,10.58333 5.8631,0 10.5833,-4.720177 10.5833,-10.58333 V -44.184901 c 0,-5.863154 -4.7202,-10.583333 -10.5833,-10.583333 z m -101.8651,26.458333 c -6.5961,0 -11.9063,4.720177 -11.9063,10.583333 v 84.666665 c 0,5.863155 5.3102,10.583333 11.9063,10.583333 6.596,0 11.9062,-4.720178 11.9062,-10.583333 v -84.666665 c 0,-5.863156 -5.3102,-10.583333 -11.9062,-10.583333 z m 68.7916,0 c -6.5959,0 -11.9062,4.720177 -11.9062,10.583333 v 84.666665 c 0,5.863155 5.3103,10.583333 11.9062,10.583333 6.5961,0 11.9063,-4.720178 11.9063,-10.583333 v -84.666665 c 0,-5.863156 -5.3102,-10.583333 -11.9063,-10.583333 z m -34.3958,26.4583324 c -6.596,0 -11.9062,4.7201773 -11.9062,10.5833332 V 40.481764 c 0,5.863156 5.3102,10.583333 11.9062,10.583333 6.5961,0 11.9063,-4.720177 11.9063,-10.583333 V 8.7317646 c 0,-5.8631559 -5.3102,-10.5833332 -11.9063,-10.5833332 z" />
  </g>
</svg>
